<svg id="visual" viewBox="0 0 900 600" width="900" height="600" xmlns="http://www.w3.org/2000/svg" xmlns:xlink="http://www.w3.org/1999/xlink" version="1.1"><g stroke-width="1" stroke-linejoin="bevel"><path d="M432 295L430 226L355.5 318Z" fill="#52b788" stroke="#52b788"></path><path d="M430 226L361.5 174L355.5 318Z" fill="#153022" stroke="#153022"></path><path d="M229 277L335.5 394L355.5 318Z" fill="#4aa57a" stroke="#4aa57a"></path><path d="M355.5 318L443 409L432 295Z" fill="#2b5f45" stroke="#2b5f45"></path><path d="M361.5 174L229 277L355.5 318Z" fill="#4aa57a" stroke="#4aa57a"></path><path d="M335.5 394L443 409L355.5 318Z" fill="#4aa57a" stroke="#4aa57a"></path><path d="M432 295L544.5 215L430 226Z" fill="#3a815f" stroke="#3a815f"></path><path d="M564.5 316L544.5 215L432 295Z" fill="#4aa57a" stroke="#4aa57a"></path><path d="M455 78L350.5 73L361.5 174Z" fill="#244f39" stroke="#244f39"></path><path d="M361.5 174L209 212L229 277Z" fill="#3a815f" stroke="#3a815f"></path><path d="M455 78L361.5 174L430 226Z" fill="#0e2117" stroke="#0e2117"></path><path d="M361.5 174L250 115L209 212Z" fill="#337052" stroke="#337052"></path><path d="M443 409L564.5 316L432 295Z" fill="#52b788" stroke="#52b788"></path><path d="M350.5 73L250 115L361.5 174Z" fill="#3a815f" stroke="#3a815f"></path><path d="M544.5 215L455 78L430 226Z" fill="#1c3f2d" stroke="#1c3f2d"></path><path d="M94.5 310L202 382L229 277Z" fill="#1c3f2d" stroke="#1c3f2d"></path><path d="M229 277L202 382L335.5 394Z" fill="#2b5f45" stroke="#2b5f45"></path><path d="M335.5 394L425 509L443 409Z" fill="#3a815f" stroke="#3a815f"></path><path d="M443 409L569.5 380L564.5 316Z" fill="#153022" stroke="#153022"></path><path d="M544.5 215L542.5 73L455 78Z" fill="#1c3f2d" stroke="#1c3f2d"></path><path d="M455 78L427 0L350.5 73Z" fill="#2b5f45" stroke="#2b5f45"></path><path d="M665 72L542.5 73L544.5 215Z" fill="#153022" stroke="#153022"></path><path d="M322.5 523L425 509L335.5 394Z" fill="#52b788" stroke="#52b788"></path><path d="M443 409L554.5 492L569.5 380Z" fill="#244f39" stroke="#244f39"></path><path d="M202 382L244 477L335.5 394Z" fill="#42936c" stroke="#42936c"></path><path d="M552.5 0L427 0L455 78Z" fill="#153022" stroke="#153022"></path><path d="M350.5 73L236 0L250 115Z" fill="#2b5f45" stroke="#2b5f45"></path><path d="M427 0L331.5 0L350.5 73Z" fill="#2b5f45" stroke="#2b5f45"></path><path d="M244 477L322.5 523L335.5 394Z" fill="#4aa57a" stroke="#4aa57a"></path><path d="M250 115L137.5 109L209 212Z" fill="#52b788" stroke="#52b788"></path><path d="M209 212L94.5 310L229 277Z" fill="#2b5f45" stroke="#2b5f45"></path><path d="M236 0L137.5 109L250 115Z" fill="#244f39" stroke="#244f39"></path><path d="M539.5 600L554.5 492L425 509Z" fill="#52b788" stroke="#52b788"></path><path d="M425 509L554.5 492L443 409Z" fill="#4aa57a" stroke="#4aa57a"></path><path d="M137.5 109L96.5 204L209 212Z" fill="#4aa57a" stroke="#4aa57a"></path><path d="M202 382L128.5 415L244 477Z" fill="#2b5f45" stroke="#2b5f45"></path><path d="M96.5 204L94.5 310L209 212Z" fill="#3a815f" stroke="#3a815f"></path><path d="M675 372L670 301L564.5 316Z" fill="#1c3f2d" stroke="#1c3f2d"></path><path d="M564.5 316L670 301L544.5 215Z" fill="#52b788" stroke="#52b788"></path><path d="M675 372L564.5 316L569.5 380Z" fill="#4aa57a" stroke="#4aa57a"></path><path d="M94.5 310L128.5 415L202 382Z" fill="#337052" stroke="#337052"></path><path d="M198 600L320.5 600L322.5 523Z" fill="#1c3f2d" stroke="#1c3f2d"></path><path d="M331.5 0L236 0L350.5 73Z" fill="#4aa57a" stroke="#4aa57a"></path><path d="M670 301L687 211L544.5 215Z" fill="#3a815f" stroke="#3a815f"></path><path d="M542.5 73L552.5 0L455 78Z" fill="#1c3f2d" stroke="#1c3f2d"></path><path d="M665 72L552.5 0L542.5 73Z" fill="#337052" stroke="#337052"></path><path d="M691 502L675 372L569.5 380Z" fill="#42936c" stroke="#42936c"></path><path d="M809.5 291L770.5 174L687 211Z" fill="#1c3f2d" stroke="#1c3f2d"></path><path d="M687 211L665 72L544.5 215Z" fill="#0e2117" stroke="#0e2117"></path><path d="M198 600L322.5 523L244 477Z" fill="#42936c" stroke="#42936c"></path><path d="M322.5 523L320.5 600L425 509Z" fill="#011409" stroke="#011409"></path><path d="M320.5 600L449 600L425 509Z" fill="#2b5f45" stroke="#2b5f45"></path><path d="M554.5 492L691 502L569.5 380Z" fill="#0e2117" stroke="#0e2117"></path><path d="M0 421L114.5 486L128.5 415Z" fill="#42936c" stroke="#42936c"></path><path d="M128.5 415L114.5 486L244 477Z" fill="#4aa57a" stroke="#4aa57a"></path><path d="M449 600L539.5 600L425 509Z" fill="#2b5f45" stroke="#2b5f45"></path><path d="M0 115L0 192L96.5 204Z" fill="#52b788" stroke="#52b788"></path><path d="M236 0L104.5 0L137.5 109Z" fill="#153022" stroke="#153022"></path><path d="M96.5 204L0 313L94.5 310Z" fill="#4aa57a" stroke="#4aa57a"></path><path d="M94.5 310L0 421L128.5 415Z" fill="#337052" stroke="#337052"></path><path d="M0 192L0 313L96.5 204Z" fill="#011409" stroke="#011409"></path><path d="M114.5 486L198 600L244 477Z" fill="#4aa57a" stroke="#4aa57a"></path><path d="M813.5 0L664 0L665 72Z" fill="#42936c" stroke="#42936c"></path><path d="M665 72L664 0L552.5 0Z" fill="#4aa57a" stroke="#4aa57a"></path><path d="M0 115L96.5 204L137.5 109Z" fill="#0e2117" stroke="#0e2117"></path><path d="M649 600L691 502L554.5 492Z" fill="#52b788" stroke="#52b788"></path><path d="M809.5 291L687 211L670 301Z" fill="#3a815f" stroke="#3a815f"></path><path d="M809.5 291L670 301L675 372Z" fill="#0e2117" stroke="#0e2117"></path><path d="M687 211L770.5 174L665 72Z" fill="#011409" stroke="#011409"></path><path d="M104.5 0L0 115L137.5 109Z" fill="#52b788" stroke="#52b788"></path><path d="M0 313L0 421L94.5 310Z" fill="#153022" stroke="#153022"></path><path d="M114.5 486L99.5 600L198 600Z" fill="#52b788" stroke="#52b788"></path><path d="M791.5 418L809.5 291L675 372Z" fill="#011409" stroke="#011409"></path><path d="M539.5 600L649 600L554.5 492Z" fill="#244f39" stroke="#244f39"></path><path d="M691 502L791.5 418L675 372Z" fill="#52b788" stroke="#52b788"></path><path d="M0 525L99.5 600L114.5 486Z" fill="#0e2117" stroke="#0e2117"></path><path d="M781.5 519L791.5 418L691 502Z" fill="#4aa57a" stroke="#4aa57a"></path><path d="M900 175L810.5 119L770.5 174Z" fill="#52b788" stroke="#52b788"></path><path d="M770.5 174L810.5 119L665 72Z" fill="#2b5f45" stroke="#2b5f45"></path><path d="M104.5 0L0 0L0 115Z" fill="#42936c" stroke="#42936c"></path><path d="M0 421L0 525L114.5 486Z" fill="#1c3f2d" stroke="#1c3f2d"></path><path d="M900 390L900 282L809.5 291Z" fill="#52b788" stroke="#52b788"></path><path d="M771.5 600L781.5 519L691 502Z" fill="#011409" stroke="#011409"></path><path d="M900 0L813.5 0L810.5 119Z" fill="#2b5f45" stroke="#2b5f45"></path><path d="M810.5 119L813.5 0L665 72Z" fill="#011409" stroke="#011409"></path><path d="M0 525L0 600L99.5 600Z" fill="#1c3f2d" stroke="#1c3f2d"></path><path d="M649 600L771.5 600L691 502Z" fill="#3a815f" stroke="#3a815f"></path><path d="M900 390L791.5 418L900 500Z" fill="#2b5f45" stroke="#2b5f45"></path><path d="M900 390L809.5 291L791.5 418Z" fill="#0e2117" stroke="#0e2117"></path><path d="M809.5 291L900 175L770.5 174Z" fill="#3a815f" stroke="#3a815f"></path><path d="M900 282L900 175L809.5 291Z" fill="#52b788" stroke="#52b788"></path><path d="M900 500L791.5 418L781.5 519Z" fill="#42936c" stroke="#42936c"></path><path d="M900 175L900 123L810.5 119Z" fill="#153022" stroke="#153022"></path><path d="M900 600L900 500L781.5 519Z" fill="#011409" stroke="#011409"></path><path d="M900 123L900 0L810.5 119Z" fill="#3a815f" stroke="#3a815f"></path><path d="M771.5 600L900 600L781.5 519Z" fill="#3a815f" stroke="#3a815f"></path></g></svg>